<svg xmlns="http://www.w3.org/2000/svg" version="1.1" xmlns:xlink="http://www.w3.org/1999/xlink" xmlns:svgjs="http://svgjs.dev/svgjs" width="2000" height="2250" viewBox="0 0 2000 2250"><g transform="matrix(1,0,0,1,0.00014687500004129106,0)"><svg viewBox="0 0 320 360" data-background-color="#636365" preserveAspectRatio="xMidYMid meet" height="2250" width="2000" xmlns="http://www.w3.org/2000/svg" xmlns:xlink="http://www.w3.org/1999/xlink"><g id="tight-bounds" transform="matrix(1,0,0,1,0.000023499999997511622,0)"><svg viewBox="0 0 320 360" height="360" width="320"><g><svg></svg></g><g><svg viewBox="0 0 320 360" height="360" width="320"><g><path transform="translate(-74.99272,-51.79039) scale(4.65793,4.65793)" d="M20.6 59.9l0.8 1-0.4-1.3c-0.1-0.6-0.8 0.1-0.4 0.3M21.5 59.3c0.3 0.5 0.6 1 0.6 1.5 0 0.7 0.6 1 1.1 1.2-0.7-0.8-1.1-3-1.7-2.7M59.9 16.9c1.7 0 3.3-0.2 5.1 0.2 4.4 1.1 8.1 3.3 10.6 6.4l7 11.2c0.3 2.8 0.9 5.9 0.8 9.3 0.7 0 0.6-1 1.4-1.2-0.8 2-1.2 4.5-1.4 7.4-0.5-1.6 0-4 0.1-5.3-0.7 1.1-1.1 0.3-1.1-0.2 0.1-0.8-0.3-0.7-0.6-1-1.1-1-1.8-2.1-2.6-3.8 0.5-1.3 0.6-3.2-1-4.2-0.5-0.3-1.1-0.8-1.4-1.6-0.4-1.1-1.1-2.4-0.9-4.1 0.1-0.5-1.5 1.1-2.4 0.4-3.9-2.7-7.8-5.8-12.5-8.4-2.5 0-4.3-0.9-5.2-2-0.8-1-0.2-2.3 1-2.4 0.7 0 1.5-0.2 2.1 0.2 0.1-0.4 0.5-0.9 1-0.9M50 14.6l0.2 0.1c1 0.2 1.5 1.6 2.6 1.1 0 0.7 0.1 1.4-0.1 1.9-0.3 0.8-1.2 0.8-1.9 0.8-6.7-0.4-10.6 2.4-14.7 4.8-1.1 0.7-2.3 1.2-3.2 2.1-4.3 4-9 7.7-10.1 15.1l-0.9 8.2c-0.1 0.9-1.1 1.8-0.9 2.9l0.7 4.9c-0.7-0.7-1.1 0.2-0.9 0.6 0.1 0.3 0.5 1.3 1.1 0.4 0.8 1.5 1.6 4.4 2.7 5.7 3.4 4 7.8 7.6 11.4 11.2 0.9-0.2 1.6-0.2 1.8-0.8 0.3 0.6-0.3 1.2-0.8 1.3 1.6 1 3.4 1.9 5.8 2.1 3.1 0.2 6 0.7 8.7 1.4 1.4-0.4 2.8-0.6 4.3-0.7 0.5 0 0.8-0.8 1.4-1l0.1-1c0.6 0.9 0.5-0.3 0.1-0.9 0.7 0.6 0.9 1.1 1.2 1.5 0-0.3 0.8-1.4 0.8-0.1l0.2-1.3c0.3-0.2 0.4 1.1 0.7 0.2 0.3-0.9 0.9-0.2 1.5-0.5-0.2 0.4-0.1 1.2 0.6 0.7l0.8-0.7c0.5 1.2 1.3 0.7 1.7 0.5 4.4-2.8 8.8-6.1 13-9.4l-0.1 1.3 0.5-1.6c0.5 0.5 0.9 0.1 1.1-0.2 0.6-1 1.4-2 2.7-2.9-1.6 4.3-3.5 7.7-5.9 10.5l-1 1.2c0 0.7-0.2 1.6-1 1.7-0.4 0.1-1.2-0.2-1.8 0.4-0.3 0.4 0.7 1.2-0.1 0.6-0.7-0.5-1.4 0-2.2 0.2-0.6 0.2 0.4 0.8 0.6 1.2 0.2 0.4 0.4 0.8 0.3 1.3l-1.1-1.2c-1.3 0.7-2.1 2-3.2 3-0.5 0.4-0.3 1.1-0.3 1.7-0.7 0-1.5-0.2-1.9 0.2-0.3 0.4-0.2 1-0.2 1.6-1-0.1-1.1-1.6-2-1.3-0.9 0.2-1.9 0.3-2.7 0.8 0.6 1.2-1 0.5-0.8 0.7-1.5-0.9-2.8-1.6-4.4-1-3.4-1.1-7.6-0.6-10.7-0.2 0-0.5 0.1-1-0.1-1.1-0.2 0.5-0.8 0.3-0.7 0.3-1.9-1.3-3.8-2.1-5.8-3.2-1.8 0.2-3.5-0.7-4-1.2-1.4-1.3-3-0.6-4.3-0.9-2.8-0.7-3.8-3.6-4.1-5.6-0.2-1-1-1.4-1.3-1.3-1.3-4.2-3.3-8-4.9-11.9-0.4-1-0.3-2-0.3-3.1 0.5 0.2 1 0.1 0.9-0.6-0.5-3.3-1.7-5.8-3-8.2 0.7-3.4 0.8-7.4 2.4-10.4 1.4-2.7 4-4.1 5.8-6.4 0.6-0.8 0.6-1.9 1.2-2.6 2-2 4-4.1 6.2-5.9 1-0.8 2.2 0 3.7-0.3 0.5-1.8 2.5-3.4 4.4-2.9 0.8 0.2 2.4-1.9 2.9-2.1 0.8-0.3 0.4 0.8 0.4 1.5 1.9-1.5 4.5-2.3 6.9-3.2" fill="#000000" fill-rule="nonzero" stroke="none" stroke-width="1" stroke-linecap="butt" stroke-linejoin="miter" stroke-miterlimit="10" stroke-dasharray="" stroke-dashoffset="0" font-family="none" font-weight="none" font-size="none" text-anchor="none" style="mix-blend-mode: normal" data-fill-palette-color="tertiary"></path></g><g transform="matrix(1,0,0,1,64,92.43550174013106)"><svg viewBox="0 0 192 175.12899651973788" height="175.12899651973788" width="192"><g><svg viewBox="0 0 192 175.12899651973788" height="175.12899651973788" width="192"><g><svg viewBox="0 0 192 175.12899651973788" height="175.12899651973788" width="192"><g transform="matrix(1,0,0,1,0,105.059483113581)"><svg viewBox="0 0 192 70.0695134061569" height="70.0695134061569" width="192"><g id="textblocktransform"><svg viewBox="0 0 192 70.0695134061569" height="70.0695134061569" width="192" id="textblock"><g><svg viewBox="0 0 192 70.0695134061569" height="70.0695134061569" width="192"><g transform="matrix(1,0,0,1,0,0)"><svg width="192" viewBox="1.25 -36.25 100.69 36.75" height="70.0695134061569" data-palette-color="#ffffff"><path d="M24.4 0L18.75 0 18.75-16.15Q18.75-18.25 18-19.53 17.25-20.8 15.45-20.8L15.45-20.8Q14.3-20.8 13.23-20.23 12.15-19.65 11.3-18.55 10.45-17.45 9.93-15.88 9.4-14.3 9.4-12.35L9.4-12.35 9.4 0 3.7 0 3.7-12.6Q3.7-15.6 3.3-17.63 2.9-19.65 2.45-20.9L2.45-20.9Q1.9-22.35 1.25-23.25L1.25-23.25 5.75-25.05Q6.25-24.5 6.75-23.7L6.75-23.7Q7.15-23 7.55-21.98 7.95-20.95 8.2-19.65L8.2-19.65Q9.5-22.65 11.95-23.98 14.4-25.3 17.1-25.3L17.1-25.3Q20.95-25.3 22.68-22.98 24.4-20.65 24.4-16.7L24.4-16.7 24.4 0ZM29.2-11.85Q29.2-15.2 30.12-17.75 31.05-20.3 32.67-22.03 34.3-23.75 36.5-24.63 38.7-25.5 41.25-25.5L41.25-25.5Q43.5-25.5 45.07-24.95 46.65-24.4 47.65-23.45 48.65-22.5 49.12-21.2 49.6-19.9 49.6-18.4L49.6-18.4Q49.6-16.6 48.6-14.98 47.6-13.35 45.72-12.13 43.85-10.9 41.2-10.18 38.55-9.45 35.25-9.4L35.25-9.4Q35.4-8.25 35.72-7.23 36.05-6.2 36.67-5.43 37.3-4.65 38.3-4.2 39.3-3.75 40.8-3.75L40.8-3.75Q41.9-3.75 43.15-4 44.4-4.25 45.45-4.6L45.45-4.6Q46.7-5 47.9-5.5L47.9-5.5 49.4-1.95Q48.1-1.3 46.6-0.8L46.6-0.8Q45.3-0.35 43.6 0 41.9 0.35 40 0.35L40 0.35Q37.1 0.35 35.05-0.53 33-1.4 31.7-3 30.4-4.6 29.8-6.85 29.2-9.1 29.2-11.85L29.2-11.85ZM40.8-21.6Q39.15-21.6 38.07-20.83 37-20.05 36.35-18.82 35.7-17.6 35.42-16.07 35.15-14.55 35.1-13L35.1-13Q37.5-13.1 39.17-13.63 40.85-14.15 41.9-14.93 42.95-15.7 43.42-16.6 43.9-17.5 43.9-18.4L43.9-18.4Q43.9-19.85 43.05-20.73 42.2-21.6 40.8-21.6L40.8-21.6ZM64.25-25.5Q70-25.5 72.59-22.1 75.2-18.7 75.2-12.75L75.2-12.75Q75.2-9.95 74.5-7.53 73.8-5.1 72.37-3.33 70.95-1.55 68.8-0.53 66.65 0.5 63.8 0.5L63.8 0.5Q60.95 0.5 58.87-0.38 56.8-1.25 55.45-2.9 54.1-4.55 53.47-6.9 52.85-9.25 52.85-12.2L52.85-12.2Q52.85-15.05 53.55-17.48 54.25-19.9 55.67-21.68 57.1-23.45 59.25-24.48 61.4-25.5 64.25-25.5L64.25-25.5ZM63.75-21.3Q62.3-21.3 61.37-20.65 60.45-20 59.92-18.82 59.4-17.65 59.2-16.07 59-14.5 59-12.7L59-12.7Q59-10.85 59.22-9.2 59.45-7.55 60.05-6.33 60.65-5.1 61.67-4.4 62.7-3.7 64.3-3.7L64.3-3.7Q65.75-3.7 66.67-4.35 67.59-5 68.12-6.18 68.65-7.35 68.84-8.9 69.05-10.45 69.05-12.25L69.05-12.25Q69.05-14.1 68.82-15.75 68.59-17.4 68-18.65 67.4-19.9 66.37-20.6 65.34-21.3 63.75-21.3L63.75-21.3ZM80.19-35.25L85.89-36.25 85.89-22Q86.29-22.5 86.92-23.08 87.54-23.65 88.49-24.15 89.44-24.65 90.69-25 91.94-25.35 93.59-25.35L93.59-25.35Q95.14-25.35 96.49-24.9 97.84-24.45 98.82-23.6 99.79-22.75 100.37-21.53 100.94-20.3 100.94-18.75L100.94-18.75Q100.94-16.5 100.02-15.05 99.09-13.6 97.94-12.75L97.94-12.75Q96.64-11.75 94.94-11.15L94.94-11.15 101.94 0 95.49 0 88.29-12.45 88.24-12.95Q88.64-13.05 89.77-13.4 90.89-13.75 92.09-14.4 93.29-15.05 94.22-16.03 95.14-17 95.14-18.35L95.14-18.35Q95.14-19.8 94.29-20.55 93.44-21.3 92.04-21.3L92.04-21.3Q90.14-21.3 88.94-20.55 87.74-19.8 87.07-18.85 86.39-17.9 86.14-17.05 85.89-16.2 85.89-16.05L85.89-16.05 85.89 0 80.19 0 80.19-35.25Z" opacity="1" transform="matrix(1,0,0,1,0,0)" fill="#000000" class="wordmark-text-0" data-fill-palette-color="primary" id="text-0"></path></svg></g></svg></g></svg></g></svg></g><g transform="matrix(1,0,0,1,36.672,0)"><svg viewBox="0 0 118.656 94.83465943930095" height="94.83465943930095" width="118.656"><g><svg xmlns="http://www.w3.org/2000/svg" data-name="Layer 1" viewBox="1.428876876515576 11.18 97.14224624696885 77.64000000000001" x="0" y="0" height="94.83465943930095" width="118.656" class="icon-icon-0" data-fill-palette-color="accent" id="icon-0"><path d="M65.52 11.18h-31a9.27 9.27 0 0 0-9.09 9.39V79.43a9.27 9.27 0 0 0 9.09 9.39h31a9.27 9.27 0 0 0 9.09-9.39V20.58A9.27 9.27 0 0 0 65.52 11.18ZM52.61 84.72H47.39a2.27 2.27 0 1 1 0-4.55h5.21a2.27 2.27 0 1 1 0 4.55Zm15-9.25a0.59 0.59 0 0 1-0.59 0.59H33a0.59 0.59 0 0 1-0.59-0.59V24.58A0.59 0.59 0 0 1 33 24H67a0.59 0.59 0 0 1 0.59 0.59ZM84.75 42a15.11 15.11 0 0 1 0 16 2.8 2.8 0 0 1-4.35 0.43l-0.16-0.16a2.76 2.76 0 0 1-0.34-3.42 9.32 9.32 0 0 0 0-9.7 2.76 2.76 0 0 1 0.34-3.42l0.16-0.16A2.8 2.8 0 0 1 84.75 42Zm8.15-8.41a26.65 26.65 0 0 1 0 32.87 2.83 2.83 0 0 1-4.21 0.23l-0.09-0.09a2.81 2.81 0 0 1-0.23-3.73 20.78 20.78 0 0 0 0-25.72 2.81 2.81 0 0 1 0.2-3.69l0.08-0.08A2.82 2.82 0 0 1 92.9 33.57Zm-72.8 11.6a9.32 9.32 0 0 0 0 9.7 2.76 2.76 0 0 1-0.34 3.42l-0.16 0.16A2.8 2.8 0 0 1 15.25 58a15.11 15.11 0 0 1 0-16 2.8 2.8 0 0 1 4.34-0.43l0.16 0.16A2.76 2.76 0 0 1 20.09 45.17ZM7.1 66.43a26.65 26.65 0 0 1 0-32.87 2.83 2.83 0 0 1 4.21-0.23l0.09 0.09a2.81 2.81 0 0 1 0.23 3.73 20.78 20.78 0 0 0 0 25.72 2.81 2.81 0 0 1-0.2 3.69l-0.08 0.08A2.83 2.83 0 0 1 7.1 66.43ZM50 36.93A13.07 13.07 0 1 0 63.07 50 13.08 13.08 0 0 0 50 36.93Zm6 11.29l-6.3 6.3a1.59 1.59 0 0 1-2.25 0L44 51.12a1.88 1.88 0 1 1 2.66-2.66l1.87 1.87 4.76-4.76a1.88 1.88 0 0 1 2.66 0h0A1.88 1.88 0 0 1 56 48.22Z" fill="#000000" data-fill-palette-color="accent"></path></svg></g></svg></g><g></g></svg></g></svg></g></svg></g></svg></g><defs></defs></svg><rect width="320" height="360" fill="none" stroke="none" visibility="hidden"></rect></g></svg></g></svg>